<svg width="496.72731" height="503.74812" xmlns="http://www.w3.org/2000/svg">

 <metadata id="metadata7">image/svg+xml</metadata>
 <g>
  <title>background</title>
  <rect fill="none" id="canvas_background" height="402" width="582" y="-1" x="-1"/>
 </g>
 <g>
  <title>Layer 1</title>
  <g display="inline" id="layer1">
   <path clip-rule="nonzero" fill="#c3bf0a" fill-rule="evenodd" stroke-width="35" stroke-linecap="round" stroke-miterlimit="4" stroke-dashoffset="0" id="path3336" d="m253.64592,0.00833c-123.50329,-0.95131 -231.52941,89.05551 -250.69336,213.53711c-20.44155,132.78036 67.33853,258.56412 199.01953,285.18359c131.681,26.61947 261.42671,-55.19001 294.16601,-185.48437a17.50175,17.50175 0 1 0 -33.94531,-8.5293c-28.27064,112.51016 -139.57762,182.6951 -253.28516,159.70898c-113.70753,-22.98611 -189.01471,-130.89589 -171.36328,-245.55273c17.65143,-114.65684 121.9272,-194.91887 237.28321,-182.64063a17.50175,17.50175 0 1 0 3.70507,-34.80468c-8.34937,-0.88869 -16.65316,-1.35455 -24.88671,-1.41797z"/>
   <path clip-rule="nonzero" fill="#c3bf0a" fill-rule="evenodd" stroke-width="36.215759" stroke-linecap="round" stroke-miterlimit="4" stroke-dashoffset="0" id="path3336-1" d="m270.396184,2.676133a18.48347,17.72803 22.573883 0 0 -4.34541,2.16132c-25.25553,16.67613 -39.27138,45.39153 -37.25742,75.65953c2.01396,30.26799 19.68176,58.03622 46.87466,73.5063a18.48347,17.72803 22.573883 1 0 17.86922,-30.64913c-16.18609,-9.20829 -26.86688,-25.92375 -28.07666,-44.10573c-1.20979,-18.18199 7.13572,-34.9962 21.86062,-44.71901a18.48347,17.72803 22.573883 0 0 -16.92501,-31.85328z"/>
   <path clip-rule="nonzero" fill="#c3bf0a" fill-rule="evenodd" stroke-width="35.022301" stroke-linecap="round" stroke-miterlimit="4" stroke-dashoffset="0" id="path3336-1-1" d="m347.605844,224.435033a17.06547,17.94918 71.371125 0 0 -1.11421,2.73879c-11.72563,36.04358 2.23765,74.74697 34.06331,96.15216c31.82566,21.4052 74.93045,21.25725 107.22376,-0.80919a17.06547,17.94918 71.371125 1 0 -20.10628,-27.75415c-19.54116,13.35274 -46.1519,13.63415 -66.03891,0.2586c-19.88703,-13.37554 -28.11065,-36.91082 -21.07689,-58.53197a17.06547,17.94918 71.371125 0 0 -32.95078,-12.05424z"/>
   <path clip-rule="nonzero" fill="#c3bf0a" fill-rule="evenodd" stroke-width="35.048519" stroke-linecap="round" stroke-miterlimit="4" stroke-dashoffset="0" id="path3336-1-1-3" d="m268.959524,133.392273a16.86202,18.16575 72.83626 0 0 -0.54562,1.09054c-13.25888,27.85185 -8.92482,59.83931 10.65255,83.34219c19.57737,23.50287 51.34473,35.30861 83.49166,30.90392a16.86202,18.16575 72.83626 1 0 -3.72921,-33.59709c-19.35803,2.65239 -39.0578,-4.61525 -50.98381,-18.93258c-11.92601,-14.31733 -14.18616,-32.95792 -6.57661,-48.94269a16.86202,18.16575 72.83626 0 0 -32.30896,-13.86429z"/>
   <path fill="#c3bf0a" clip-rule="nonzero" fill-rule="nonzero" stroke-width="20" stroke-miterlimit="4" stroke-dashoffset="0" id="path4189-63" d="m171.3537,113.99365l-3.10183,0.0399c-13.36581,1.00615 -23.65105,12.59554 -23.06086,25.98617c0.59021,13.39063 11.85483,24.0317 25.25733,23.85801c13.40251,-0.17367 24.38798,-11.10286 24.63099,-24.50428c0.24301,-13.40143 -10.33824,-24.72029 -23.72563,-25.37976l0,-0.00004z"/>
   <path clip-rule="nonzero" fill="#c3bf0a" fill-rule="nonzero" stroke-width="20" stroke-miterlimit="4" stroke-dashoffset="0" id="path4189-2" d="m130.69214,217.93566l-5.32177,0.0684c-22.93159,1.72625 -40.57786,21.61003 -39.56527,44.58417c1.01261,22.97416 20.3392,41.23092 43.33372,40.93294c22.99453,-0.29798 41.84218,-19.04907 42.2591,-42.04174c0.41695,-22.99269 -17.7372,-42.41232 -40.70578,-43.54376l0,-0.00001z"/>
   <path clip-rule="nonzero" fill="#c3bf0a" fill-rule="nonzero" stroke-width="20" stroke-miterlimit="4" stroke-dashoffset="0" id="path4189-2-1" d="m233.45596,194.36423l-4.21144,0.0541c-18.14719,1.36609 -32.11178,17.10136 -31.31045,35.28222c0.80134,18.18087 16.09567,32.62858 34.29265,32.39277c18.197,-0.23581 33.11231,-15.07471 33.44225,-33.27023c0.32996,-18.19554 -14.03655,-33.5635 -32.21301,-34.45888l0,0.00002z"/>
   <path clip-rule="nonzero" fill="#c3bf0a" fill-rule="nonzero" stroke-width="20" stroke-miterlimit="4" stroke-dashoffset="0" d="m166.63559,332.93566l-3.23436,0.0416c-13.93691,1.04914 -24.66162,13.13372 -24.04621,27.0965c0.61543,13.96278 12.36137,25.05852 26.33652,24.87742c13.97517,-0.1811 25.43002,-11.57727 25.68341,-25.55131c0.25341,-13.97405 -10.77997,-25.77653 -24.73936,-26.46418l0,-0.00003z" id="path4202"/>
   <path clip-rule="nonzero" fill="#c3bf0a" fill-rule="nonzero" stroke-width="20" stroke-miterlimit="4" stroke-dashoffset="0" id="path4204" d="m310.74649,309.36422l-5.49804,0.0707c-23.69113,1.78341 -41.9219,22.3258 -40.87577,46.06091c1.04616,23.73511 21.01289,42.59658 44.76903,42.28873c23.75617,-0.30784 43.22809,-19.68001 43.65883,-43.43427c0.43076,-23.75426 -18.3247,-43.81711 -42.05405,-44.98604l0,-0.00003z"/>
  </g>
 </g>
</svg>